<svg width="96" height="54" viewBox="0 0 96 54" fill="none" xmlns="http://www.w3.org/2000/svg">
<g clip-path="url(#clip0_17_109)">
<path d="M7.55404 52.9952C6.50819 52.9952 5.52126 52.8393 4.59325 52.5275C3.67997 52.2009 2.914 51.6888 2.29533 50.991C1.67665 50.2785 1.27157 49.3506 1.08008 48.2075H3.8862C4.06296 48.7865 4.34284 49.2393 4.72582 49.5659C5.12354 49.8925 5.58754 50.1226 6.11783 50.2562C6.64812 50.375 7.18578 50.4343 7.7308 50.4343C8.2169 50.4343 8.67354 50.375 9.10072 50.2562C9.54263 50.1226 9.90352 49.9073 10.1834 49.6104C10.478 49.3135 10.6253 48.9201 10.6253 48.4302C10.6253 48.0591 10.5443 47.7622 10.3823 47.5395C10.2349 47.302 10.0214 47.109 9.74148 46.9605C9.47634 46.7972 9.15227 46.671 8.76929 46.582C8.40103 46.4632 8.00331 46.3593 7.57613 46.2702C7.14895 46.1811 6.72914 46.0846 6.31669 45.9807C5.90425 45.8768 5.51389 45.7432 5.14564 45.5799C4.67427 45.4166 4.21763 45.231 3.77572 45.0232C3.34854 44.8005 2.97292 44.5333 2.64885 44.2216C2.33952 43.9098 2.0891 43.5238 1.89761 43.0636C1.70612 42.6034 1.61037 42.0541 1.61037 41.4158C1.61037 40.6884 1.72821 40.0648 1.96389 39.5453C2.21431 39.0108 2.53838 38.5729 2.93609 38.2314C3.34854 37.89 3.80518 37.6228 4.30601 37.4298C4.82157 37.2368 5.35186 37.0958 5.89688 37.0067C6.45663 36.9176 6.98692 36.8731 7.48775 36.8731C8.45995 36.8731 9.34377 37.0364 10.1392 37.363C10.9494 37.6896 11.6122 38.1943 12.1278 38.8772C12.6433 39.5601 12.938 40.436 13.0116 41.5048H10.3381C10.2791 41.0001 10.1024 40.5993 9.80777 40.3024C9.51316 39.9906 9.14491 39.7679 8.703 39.6343C8.26109 39.4859 7.78236 39.4117 7.2668 39.4117C6.91327 39.4117 6.55974 39.4413 6.20622 39.5007C5.86742 39.5601 5.55808 39.664 5.27821 39.8125C5.01306 39.9609 4.79211 40.1613 4.61535 40.4137C4.45331 40.6512 4.3723 40.9556 4.3723 41.3267C4.3723 41.6533 4.45331 41.9428 4.61535 42.1952C4.77738 42.4327 4.99833 42.6331 5.27821 42.7964C5.57281 42.9597 5.91898 43.1081 6.31669 43.2418C6.83225 43.4496 7.392 43.6055 7.99594 43.7094C8.61462 43.8133 9.19646 43.9543 9.74148 44.1325C10.2718 44.2809 10.7579 44.4665 11.1998 44.6892C11.6564 44.897 12.0468 45.1568 12.3708 45.4686C12.6949 45.7655 12.9453 46.1366 13.1221 46.582C13.3136 47.0125 13.4093 47.5321 13.4093 48.1407C13.4093 49.0314 13.2473 49.7886 12.9232 50.4121C12.6139 51.0207 12.1793 51.518 11.6196 51.904C11.0746 52.29 10.4485 52.5721 9.74148 52.7502C9.04916 52.9135 8.32001 52.9952 7.55404 52.9952Z" fill="#00A3FF"/>
<path d="M18.6509 52.9729C18.1059 52.9729 17.5904 52.8987 17.1043 52.7502C16.6182 52.6018 16.1836 52.3865 15.8006 52.1044C15.4176 51.8075 15.1083 51.4438 14.8726 51.0133C14.6517 50.5679 14.5412 50.0484 14.5412 49.4545C14.5412 48.6974 14.6885 48.0813 14.9831 47.6063C15.2777 47.1164 15.6754 46.7453 16.1763 46.4929C16.6918 46.2405 17.2737 46.0698 17.9218 45.9807C18.5699 45.8768 19.2475 45.8248 19.9546 45.8248H22.2304C22.2304 45.3053 22.1494 44.8599 21.9874 44.4888C21.8253 44.1028 21.5675 43.7985 21.214 43.5758C20.8752 43.3531 20.4333 43.2418 19.8883 43.2418C19.5348 43.2418 19.2033 43.2863 18.894 43.3754C18.5994 43.4496 18.3416 43.5758 18.1207 43.7539C17.9144 43.9172 17.7671 44.1325 17.6787 44.3997H14.9168C15.0199 43.791 15.2262 43.2714 15.5355 42.8409C15.8596 42.3956 16.2499 42.0319 16.7065 41.7498C17.1779 41.4677 17.6935 41.2599 18.2532 41.1263C18.813 40.9778 19.3801 40.9036 19.9546 40.9036C21.6486 40.9036 22.8785 41.3935 23.6445 42.3733C24.4252 43.3531 24.8156 44.7263 24.8156 46.4929V52.817H22.4293L22.363 51.3028C22.0242 51.8075 21.6191 52.1787 21.1477 52.4162C20.6764 52.6537 20.2197 52.8022 19.7778 52.8616C19.3359 52.9358 18.9603 52.9729 18.6509 52.9729ZM19.1812 50.7684C19.7704 50.7684 20.2934 50.657 20.75 50.4343C21.2066 50.2117 21.5675 49.8999 21.8327 49.4991C22.1126 49.0983 22.2525 48.638 22.2525 48.1185V47.7399H20.1313C19.7778 47.7399 19.4243 47.7547 19.0708 47.7844C18.732 47.7993 18.4226 47.8587 18.1427 47.9626C17.8629 48.0517 17.6346 48.1927 17.4578 48.3857C17.2958 48.5787 17.2147 48.8533 17.2147 49.2096C17.2147 49.5659 17.3031 49.8554 17.4799 50.078C17.6714 50.3007 17.9144 50.4714 18.209 50.5902C18.5184 50.709 18.8424 50.7684 19.1812 50.7684Z" fill="#00A3FF"/>
<path d="M30.2174 52.9729C29.6724 52.9729 29.1568 52.8987 28.6707 52.7502C28.1846 52.6018 27.7501 52.3865 27.3671 52.1044C26.9841 51.8075 26.6747 51.4438 26.4391 51.0133C26.2181 50.5679 26.1076 50.0484 26.1076 49.4545C26.1076 48.6974 26.2549 48.0813 26.5495 47.6063C26.8441 47.1164 27.2419 46.7453 27.7427 46.4929C28.2582 46.2405 28.8401 46.0698 29.4882 45.9807C30.1364 45.8768 30.814 45.8248 31.521 45.8248H33.7968C33.7968 45.3053 33.7158 44.8599 33.5538 44.4888C33.3918 44.1028 33.134 43.7985 32.7804 43.5758C32.4417 43.3531 31.9997 43.2418 31.4547 43.2418C31.1012 43.2418 30.7698 43.2863 30.4604 43.3754C30.1658 43.4496 29.908 43.5758 29.6871 43.7539C29.4809 43.9172 29.3336 44.1325 29.2452 44.3997H26.4833C26.5864 43.791 26.7926 43.2714 27.1019 42.8409C27.426 42.3956 27.8163 42.0319 28.273 41.7498C28.7444 41.4677 29.2599 41.2599 29.8197 41.1263C30.3794 40.9778 30.9465 40.9036 31.521 40.9036C33.215 40.9036 34.445 41.3935 35.2109 42.3733C35.9916 43.3531 36.382 44.7263 36.382 46.4929V52.817H33.9957L33.9294 51.3028C33.5906 51.8075 33.1855 52.1787 32.7142 52.4162C32.2428 52.6537 31.7862 52.8022 31.3442 52.8616C30.9023 52.9358 30.5267 52.9729 30.2174 52.9729ZM30.7477 50.7684C31.3369 50.7684 31.8598 50.657 32.3164 50.4343C32.7731 50.2117 33.134 49.8999 33.3991 49.4991C33.679 49.0983 33.8189 48.638 33.8189 48.1185V47.7399H31.6978C31.3442 47.7399 30.9907 47.7547 30.6372 47.7844C30.2984 47.7993 29.9891 47.8587 29.7092 47.9626C29.4293 48.0517 29.201 48.1927 29.0242 48.3857C28.8622 48.5787 28.7812 48.8533 28.7812 49.2096C28.7812 49.5659 28.8696 49.8554 29.0463 50.078C29.2378 50.3007 29.4809 50.4714 29.7755 50.5902C30.0848 50.709 30.4089 50.7684 30.7477 50.7684Z" fill="#00A3FF"/>
<path d="M44.3248 52.9952C43.2789 52.9952 42.292 52.8393 41.364 52.5275C40.4507 52.2009 39.6847 51.6888 39.0661 50.991C38.4474 50.2785 38.0423 49.3506 37.8508 48.2075H40.6569C40.8337 48.7865 41.1136 49.2393 41.4966 49.5659C41.8943 49.8925 42.3583 50.1226 42.8886 50.2562C43.4189 50.375 43.9565 50.4343 44.5016 50.4343C44.9877 50.4343 45.4443 50.375 45.8715 50.2562C46.3134 50.1226 46.6743 49.9073 46.9541 49.6104C47.2487 49.3135 47.3961 48.9201 47.3961 48.4302C47.3961 48.0591 47.315 47.7622 47.153 47.5395C47.0057 47.302 46.7921 47.109 46.5122 46.9605C46.2471 46.7972 45.923 46.671 45.54 46.582C45.1718 46.4632 44.7741 46.3593 44.3469 46.2702C43.9197 46.1811 43.4999 46.0846 43.0874 45.9807C42.675 45.8768 42.2846 45.7432 41.9164 45.5799C41.445 45.4166 40.9884 45.231 40.5465 45.0232C40.1193 44.8005 39.7437 44.5333 39.4196 44.2216C39.1103 43.9098 38.8599 43.5238 38.6684 43.0636C38.4769 42.6034 38.3811 42.0541 38.3811 41.4158C38.3811 40.6884 38.499 40.0648 38.7346 39.5453C38.9851 39.0108 39.3091 38.5729 39.7068 38.2314C40.1193 37.89 40.5759 37.6228 41.0768 37.4298C41.5923 37.2368 42.1226 37.0958 42.6676 37.0067C43.2274 36.9176 43.7577 36.8731 44.2585 36.8731C45.2307 36.8731 46.1145 37.0364 46.91 37.363C47.7201 37.6896 48.383 38.1943 48.8985 38.8772C49.4141 39.5601 49.7087 40.436 49.7824 41.5048H47.1088C47.0499 41.0001 46.8731 40.5993 46.5785 40.3024C46.2839 39.9906 45.9157 39.7679 45.4738 39.6343C45.0318 39.4859 44.5531 39.4117 44.0375 39.4117C43.684 39.4117 43.3305 39.4413 42.977 39.5007C42.6382 39.5601 42.3288 39.664 42.049 39.8125C41.7838 39.9609 41.5629 40.1613 41.3861 40.4137C41.2241 40.6512 41.143 40.9556 41.143 41.3267C41.143 41.6533 41.2241 41.9428 41.3861 42.1952C41.5481 42.4327 41.7691 42.6331 42.049 42.7964C42.3436 42.9597 42.6897 43.1081 43.0874 43.2418C43.603 43.4496 44.1628 43.6055 44.7667 43.7094C45.3854 43.8133 45.9672 43.9543 46.5122 44.1325C47.0425 44.2809 47.5286 44.4665 47.9705 44.6892C48.4272 44.897 48.8175 45.1568 49.1416 45.4686C49.4657 45.7655 49.7161 46.1366 49.8928 46.582C50.0843 47.0125 50.1801 47.5321 50.1801 48.1407C50.1801 49.0314 50.018 49.7886 49.694 50.4121C49.3846 51.0207 48.9501 51.518 48.3903 51.904C47.8453 52.29 47.2193 52.5721 46.5122 52.7502C45.8199 52.9135 45.0908 52.9952 44.3248 52.9952Z" fill="#00A3FF"/>
<path d="M52.1516 52.817V37.0735H54.9135V43.843H57.1451L61.5642 37.0735H64.7018L59.4873 44.7783L64.7018 52.817H61.4979L57.2777 46.3815H54.9135V52.817H52.1516Z" fill="#FFA500"/>
<path d="M68.8438 52.9729C68.2988 52.9729 67.7832 52.8987 67.2971 52.7502C66.811 52.6018 66.3765 52.3865 65.9935 52.1044C65.6105 51.8075 65.3012 51.4438 65.0655 51.0133C64.8445 50.5679 64.7341 50.0484 64.7341 49.4545C64.7341 48.6974 64.8814 48.0813 65.176 47.6063C65.4706 47.1164 65.8683 46.7453 66.3691 46.4929C66.8847 46.2405 67.4665 46.0698 68.1146 45.9807C68.7628 45.8768 69.4404 45.8248 70.1474 45.8248H72.4233C72.4233 45.3053 72.3422 44.8599 72.1802 44.4888C72.0182 44.1028 71.7604 43.7985 71.4069 43.5758C71.0681 43.3531 70.6262 43.2418 70.0811 43.2418C69.7276 43.2418 69.3962 43.2863 69.0868 43.3754C68.7922 43.4496 68.5345 43.5758 68.3135 43.7539C68.1073 43.9172 67.96 44.1325 67.8716 44.3997H65.1097C65.2128 43.791 65.419 43.2714 65.7283 42.8409C66.0524 42.3956 66.4428 42.0319 66.8994 41.7498C67.3708 41.4677 67.8863 41.2599 68.4461 41.1263C69.0058 40.9778 69.573 40.9036 70.1474 40.9036C71.8414 40.9036 73.0714 41.3935 73.8374 42.3733C74.6181 43.3531 75.0084 44.7263 75.0084 46.4929V52.817H72.6221L72.5558 51.3028C72.217 51.8075 71.812 52.1787 71.3406 52.4162C70.8692 52.6537 70.4126 52.8022 69.9707 52.8616C69.5288 52.9358 69.1531 52.9729 68.8438 52.9729ZM69.3741 50.7684C69.9633 50.7684 70.4862 50.657 70.9429 50.4343C71.3995 50.2117 71.7604 49.8999 72.0255 49.4991C72.3054 49.0983 72.4454 48.638 72.4454 48.1185V47.7399H70.3242C69.9707 47.7399 69.6171 47.7547 69.2636 47.7844C68.9248 47.7993 68.6155 47.8587 68.3356 47.9626C68.0557 48.0517 67.8274 48.1927 67.6507 48.3857C67.4886 48.5787 67.4076 48.8533 67.4076 49.2096C67.4076 49.5659 67.496 49.8554 67.6727 50.078C67.8642 50.3007 68.1073 50.4714 68.4019 50.5902C68.7112 50.709 69.0353 50.7684 69.3741 50.7684Z" fill="#FFA500"/>
<path d="M76.6982 52.817V41.0818H79.1508L79.3055 42.6183C79.6001 42.1729 79.9315 41.8314 80.2998 41.5939C80.6827 41.3416 81.0878 41.1634 81.515 41.0595C81.9569 40.9556 82.3988 40.9036 82.8407 40.9036C83.0028 40.9036 83.1501 40.9036 83.2826 40.9036C83.4299 40.9036 83.5478 40.911 83.6362 40.9259V43.509H82.9291C82.1631 43.509 81.515 43.6574 80.9847 43.9543C80.4544 44.2512 80.0567 44.6743 79.7916 45.2236C79.5264 45.7729 79.3938 46.4484 79.3938 47.25V52.817H76.6982Z" fill="#FFA500"/>
<path d="M89.4467 52.9729C88.2536 52.9729 87.2225 52.7279 86.3534 52.238C85.499 51.7481 84.8362 51.0504 84.3648 50.1448C83.9082 49.2393 83.6798 48.1778 83.6798 46.9605C83.6798 45.7284 83.9155 44.6669 84.3869 43.7762C84.8583 42.8706 85.5211 42.1655 86.3755 41.6607C87.2298 41.156 88.2536 40.9036 89.4467 40.9036C90.6252 40.9036 91.6416 41.156 92.4959 41.6607C93.3503 42.1655 94.0058 42.878 94.4624 43.7985C94.919 44.704 95.1474 45.7729 95.1474 47.0051C95.1474 48.2075 94.919 49.2615 94.4624 50.1671C94.0205 51.0578 93.3724 51.7481 92.518 52.238C91.6637 52.7279 90.6399 52.9729 89.4467 52.9729ZM89.4246 50.5011C90.1612 50.5011 90.7504 50.3378 91.1923 50.0112C91.6489 49.6846 91.9804 49.2541 92.1866 48.7197C92.3928 48.1853 92.4959 47.6063 92.4959 46.9828C92.4959 46.3593 92.3928 45.7729 92.1866 45.2236C91.9804 44.6743 91.6489 44.2364 91.1923 43.9098C90.7504 43.5684 90.1612 43.3976 89.4246 43.3976C88.6881 43.3976 88.0916 43.5684 87.6349 43.9098C87.1783 44.2364 86.8468 44.6743 86.6406 45.2236C86.4344 45.758 86.3313 46.3444 86.3313 46.9828C86.3313 47.6063 86.4344 48.1927 86.6406 48.742C86.8616 49.2764 87.193 49.7069 87.6349 50.0335C88.0916 50.3453 88.6881 50.5011 89.4246 50.5011Z" fill="#FFA500"/>
<path d="M51.4931 20.4605C52.655 26.0303 48.3186 31.2393 42.6459 31.2393H8.85137C3.93517 31.2393 -0.0576172 27.2393 -0.0576172 22.3022C-0.0576172 18.137 2.78416 14.6383 6.62196 13.65C6.85173 13.5913 7.00346 13.3739 6.97745 13.1369C6.92868 12.6944 6.90267 12.2421 6.90267 11.7844C6.90267 5.28815 12.1538 0.0205231 18.6296 0.0205231C22.9345 0.0205231 26.691 2.34285 28.7297 5.81002C28.8673 6.04378 29.1675 6.1188 29.3941 5.97093C30.6795 5.1305 32.2131 4.6456 33.8637 4.6456C38.4017 4.6456 42.0769 8.3324 42.0769 12.8846C42.0769 12.8868 42.0769 12.8879 42.0769 12.8901C42.0769 13.1597 42.2948 13.375 42.5635 13.3684C42.6329 13.3663 42.7034 13.3663 42.7727 13.3663C47.0657 13.3663 50.6467 16.4083 51.4931 20.4615V20.4605Z" fill="#00A3FF"/>
<path fill-rule="evenodd" clip-rule="evenodd" d="M15.2601 16.3249C12.5113 13.3046 7.965 12.4815 4.27933 14.5927L3.89111 13.9044C7.9292 11.5912 12.9168 12.5155 15.9008 15.858C16.8808 15.3957 18.0646 15.7636 18.6085 16.728C19.1802 17.7418 18.8283 19.0307 17.8223 19.607C16.8164 20.1832 15.5375 19.8285 14.9657 18.8147C14.5003 17.9895 14.6469 16.982 15.2601 16.3249Z" fill="white"/>
<path fill-rule="evenodd" clip-rule="evenodd" d="M41.5995 15.6978C42.8382 12.0707 41.5121 7.92814 38.1647 5.76794L38.5884 5.10115C42.2758 7.48081 43.7192 12.0613 42.3105 16.0478C43.181 16.7047 43.4131 17.9376 42.8173 18.8753C42.1934 19.8573 40.8976 20.1436 39.9232 19.5148C38.9488 18.886 38.6647 17.5801 39.2887 16.5981C39.7941 15.8026 40.7403 15.4636 41.5995 15.6978Z" fill="white"/>
<path fill-rule="evenodd" clip-rule="evenodd" d="M18.349 -0.391212C11.8096 -0.391212 6.5083 4.95148 6.5083 11.542H5.72266C5.72266 4.5142 11.3757 -1.18299 18.349 -1.18299C24.6127 -1.18299 29.8111 3.4136 30.8043 9.44231C31.8572 9.55393 32.6776 10.4514 32.6776 11.542C32.6776 12.7081 31.7397 13.6534 30.5826 13.6534C29.4255 13.6534 28.4876 12.7081 28.4876 11.542C28.4876 10.5729 29.1354 9.75629 30.0185 9.50805C29.0606 3.88641 24.2005 -0.391212 18.349 -0.391212Z" fill="white"/>
</g>
<defs>
<clipPath id="clip0_17_109">
<rect width="96" height="54" fill="white"/>
</clipPath>
</defs>
</svg>
